<?xml version="1.0" encoding="UTF-8" standalone="no"?>
<!-- Created with Inkscape (http://www.inkscape.org/) -->

<svg
   xmlns:dc="http://purl.org/dc/elements/1.1/"
   xmlns:cc="http://creativecommons.org/ns#"
   xmlns:rdf="http://www.w3.org/1999/02/22-rdf-syntax-ns#"
   xmlns:svg="http://www.w3.org/2000/svg"
   xmlns="http://www.w3.org/2000/svg"
   xmlns:sodipodi="http://sodipodi.sourceforge.net/DTD/sodipodi-0.dtd"
   xmlns:inkscape="http://www.inkscape.org/namespaces/inkscape"
   width="427.40045"
   height="136.74319"
   id="svg2"
   version="1.1"
   inkscape:version="0.48.1 r9760"
   sodipodi:docname="textlaignbible.svg">
  <defs
     id="defs4" />
  <sodipodi:namedview
     id="base"
     pagecolor="#ffffff"
     bordercolor="#666666"
     borderopacity="1.0"
     inkscape:pageopacity="0.0"
     inkscape:pageshadow="2"
     inkscape:zoom="1.979899"
     inkscape:cx="224.17942"
     inkscape:cy="56.234501"
     inkscape:document-units="px"
     inkscape:current-layer="layer1"
     showgrid="false"
     inkscape:window-width="1680"
     inkscape:window-height="1026"
     inkscape:window-x="0"
     inkscape:window-y="24"
     inkscape:window-maximized="1"
     fit-margin-top="0"
     fit-margin-left="0"
     fit-margin-right="0"
     fit-margin-bottom="0" />
  <metadata
     id="metadata7">
    <rdf:RDF>
      <cc:Work
         rdf:about="">
        <dc:format>image/svg+xml</dc:format>
        <dc:type
           rdf:resource="http://purl.org/dc/dcmitype/StillImage" />
        <dc:title></dc:title>
      </cc:Work>
    </rdf:RDF>
  </metadata>
  <g
     inkscape:label="Layer 1"
     inkscape:groupmode="layer"
     id="layer1"
     transform="translate(-30.081146,-23.592776)">
    <path
       style="fill:#f0fcc4;stroke:#999999;stroke-width:1px;stroke-linecap:butt;stroke-linejoin:miter;stroke-opacity:1"
       d="m 314.29921,38.003361 c -4.34364,8.465827 -17.78281,9.691637 -21.95493,18.243292 -1.62022,3.320999 -0.71704,7.404895 -0.33614,11.080365 0.74712,7.209233 4.27574,13.935875 5.10208,21.136457 0.39644,3.454472 1.8777,7.562156 -0.087,10.431073 -8.71043,12.719562 -34.27337,4.355832 -42.97987,17.078082 -2.54507,3.71895 -1.54332,9.24839 -0.10434,13.51891 1.92522,5.71356 9.32137,10.38441 11.05741,14.31415 1.30936,2.9639 0.96045,15.20132 0.96045,15.20132 l 125.65379,-0.44317 c 0,0 3.19365,-9.7442 0.0933,-12.55586 -3.78234,-3.43016 -73.92772,-10.62275 -72.33048,-15.0054 1.59723,-4.38265 0.77029,-5.85918 1.03818,-9.45365 0.26789,-3.59448 41.21559,-8.52972 52.94639,-23.942822 2.1048,-2.7655 -0.17643,-7.31986 1.60977,-10.301079 5.40884,-9.027507 20.39899,-9.649577 25.20555,-19.011649 1.84197,-3.587724 -2.1398,-8.877334 0.29108,-12.095319 11.4477,-15.154392 42.97122,-1.733044 54.41586,-16.889749 3.05712,-4.048704 0.36002,-15.215536 0.36002,-15.215536 l -139.98757,0.433783 c 0,0 1.10224,9.46993 -0.9536,13.476802 z"
       id="path3144-9-7"
       inkscape:connector-curvature="0"
       sodipodi:nodetypes="caaaaaasccszzaaaaaccac" />
    <path
       style="fill:#ffd5d5;stroke:#999999;stroke-width:1px;stroke-linecap:butt;stroke-linejoin:miter;stroke-opacity:1"
       d="m 270.60688,24.588414 c 0,0 2.03343,8.017903 0.19983,11.314257 -6.72484,12.089577 -29.4273,8.902591 -35.64201,21.262154 -1.59296,3.168024 1.91216,7.138152 1.07376,10.583582 -1.9214,7.896023 -11.49429,12.495926 -13.32997,20.412316 -0.79842,3.443213 -1.08783,7.916727 1.29879,10.523872 22.8277,24.936905 99.22844,8.688875 99.17228,21.246975 -0.0181,4.05355 -1.017,6.11615 -1.84528,9.09748 -2.44053,8.78447 67.99801,6.68618 71.58846,16.92505 1.47181,4.19714 0.69864,13.32487 0.69864,13.32487 l 46.3558,0.557 c 0,0 1.97573,-7.60135 -0.0782,-10.38999 -7.71313,-10.47196 -77.91452,-10.18029 -76.44647,-21.73047 0.30105,-2.36853 -0.22356,-4.78658 0.007,-7.16277 1.567,-16.1501 -73.81003,3.84567 -93.41783,-21.372199 -2.25628,-2.901842 0.9111,-7.405493 0.26575,-11.0242 -1.30929,-7.341757 -7.21091,-13.414493 -8.23742,-20.801097 -0.45834,-3.298162 -0.96706,-7.25654 1.00616,-9.938775 10.72932,-14.584621 39.75557,-6.356399 49.96312,-21.310849 2.20598,-3.231853 0.35496,-11.733507 0.35496,-11.733507 z"
       id="path3144-5"
       inkscape:connector-curvature="0"
       sodipodi:nodetypes="caaaaasssccsssaaaaacc" />
    <path
       style="fill:#fff6d5;stroke:#999999;stroke-width:1px;stroke-linecap:butt;stroke-linejoin:miter;stroke-opacity:1"
       d="m 185.84101,39.460864 c -0.88869,6.327521 -4.09233,12.176107 -5.03487,18.49583 -0.54508,3.65473 0.65171,7.519701 -0.33614,11.080365 -2.10766,7.597024 -9.44633,13.037541 -11.56544,20.63138 -0.91246,3.269804 1.15563,7.13078 -0.33949,10.178535 -3.81311,7.772906 -16.28568,8.751896 -19.9989,16.573006 -1.93275,4.07093 -2.57658,9.75115 -0.10434,13.51891 6.813,10.38323 23.96858,6.59634 34.29092,14.56669 2.56467,1.9803 0.96045,15.20132 0.96045,15.20132 l 32.46722,0.0619 c 0,0 0.009,-8.37131 0.0933,-12.55586 0.12052,-5.97188 0.55563,-11.93659 0.5899,-17.90959 0.02,-3.48868 -0.61015,-6.99644 -0.22451,-10.4638 0.7699,-6.92225 4.06688,-13.38261 5.02728,-20.281016 0.47375,-3.402822 -0.6063,-7.000367 0.34708,-10.301079 1.98252,-6.863712 8.8614,-11.633403 10.81088,-18.506572 1.10048,-3.879891 -0.68344,-8.181892 0.29108,-12.095319 1.61229,-6.474521 7.34801,-11.425055 8.95899,-17.899902 1.22492,-4.92317 0.36002,-15.215535 0.36002,-15.215535 L 186.037,24.721372 c 0,0 0.48741,9.873651 -0.19599,14.739492 z"
       id="path3144-9"
       inkscape:connector-curvature="0"
       sodipodi:nodetypes="aaaaaaasccaaaaaaaacca" />
    <path
       style="fill:#ffe6d5;stroke:#999999;stroke-width:1px;stroke-linecap:butt;stroke-linejoin:miter;stroke-opacity:1"
       d="m 244.32206,24.500682 c 0,0 -1.25928,7.835891 0.19983,11.314256 3.52437,8.401713 15.68788,11.070442 19.15877,19.494388 1.6326,3.962367 -0.85224,8.669902 0.0636,12.856425 1.3596,6.215017 6.53058,11.165328 7.88324,17.381859 0.94273,4.332569 2.65442,9.723483 0.0361,13.301791 -10.95849,14.976349 -42.22931,1.667039 -53.10822,16.701289 -2.56753,3.54824 -1.77566,9.21673 0.17502,13.13809 3.72702,7.49226 15.94552,7.99178 19.81815,15.40982 2.05834,3.94277 0.69864,13.32486 0.69864,13.32486 l 25.14259,0.30446 c 0,0 0.82124,-7.6131 -0.33078,-11.1476 -2.34123,-7.18311 -10.71795,-11.4395 -12.80685,-18.7 -1.17314,-4.07756 -1.99382,-9.2944 0.51168,-12.71861 8.99255,-12.28992 34.0957,-3.17591 42.95277,-15.563825 2.82317,-3.948613 0.80774,-9.736033 0.26575,-14.559734 -0.69094,-6.149391 -3.70115,-11.88049 -4.44935,-18.023177 -0.42092,-3.455744 1.36472,-7.242922 -0.004,-10.443851 -3.94534,-9.226694 -17.75255,-11.60489 -21.75771,-20.805774 -1.49399,-3.432074 -0.15011,-11.22843 -0.15011,-11.22843 z"
       id="path3144"
       inkscape:connector-curvature="0"
       sodipodi:nodetypes="caaaaaaaaccaaaaaaaacc" />
    <text
       xml:space="preserve"
       style="font-size:40px;font-style:normal;font-weight:normal;line-height:125%;letter-spacing:0px;word-spacing:0px;fill:#000000;fill-opacity:1;stroke:none;font-family:Bitstream Vera Sans"
       x="150.00766"
       y="36.148727"
       id="text2985"
       sodipodi:linespacing="125%"><tspan
         sodipodi:role="line"
         id="tspan2987"
         x="150.00766"
         y="36.148727"
         style="font-size:12px;font-style:normal;font-variant:normal;font-weight:500;font-stretch:normal;text-align:start;line-height:125%;writing-mode:lr-tb;text-anchor:start;font-family:Century Schoolbook L;-inkscape-font-specification:Century Schoolbook L Medium">In the beginning God created the heaven and the earth.</tspan><tspan
         sodipodi:role="line"
         x="150.00766"
         y="51.148727"
         id="tspan2989"
         style="font-size:12px;font-style:normal;font-variant:normal;font-weight:500;font-stretch:normal;text-align:start;line-height:125%;writing-mode:lr-tb;text-anchor:start;font-family:Century Schoolbook L;-inkscape-font-specification:Century Schoolbook L Medium" /><tspan
         sodipodi:role="line"
         x="150.00766"
         y="66.148727"
         style="font-size:12px;font-style:normal;font-variant:normal;font-weight:500;font-stretch:normal;text-align:start;line-height:125%;writing-mode:lr-tb;text-anchor:start;font-family:Century Schoolbook L;-inkscape-font-specification:Century Schoolbook L Medium"
         id="tspan3052">En el principio Creó Dios los cielos y la tierra.</tspan><tspan
         sodipodi:role="line"
         x="150.00766"
         y="81.148727"
         id="tspan2997"
         style="font-size:12px;font-style:normal;font-variant:normal;font-weight:500;font-stretch:normal;text-align:start;line-height:125%;writing-mode:lr-tb;text-anchor:start;font-family:Century Schoolbook L;-inkscape-font-specification:Century Schoolbook L Medium" /><tspan
         sodipodi:role="line"
         x="150.00766"
         y="96.148727"
         id="tspan2999"
         style="font-size:12px;font-style:normal;font-variant:normal;font-weight:500;font-stretch:normal;text-align:start;line-height:125%;writing-mode:lr-tb;text-anchor:start;font-family:Century Schoolbook L;-inkscape-font-specification:Century Schoolbook L Medium">Na początku stworzył Bóg niebo i ziemię.</tspan><tspan
         sodipodi:role="line"
         x="150.00766"
         y="111.14873"
         id="tspan3001"
         style="font-size:12px;font-style:normal;font-variant:normal;font-weight:500;font-stretch:normal;text-align:start;line-height:125%;writing-mode:lr-tb;text-anchor:start;font-family:Century Schoolbook L;-inkscape-font-specification:Century Schoolbook L Medium" /><tspan
         sodipodi:role="line"
         x="150.00766"
         y="126.14873"
         id="tspan3003"
         style="font-size:12px;font-style:normal;font-variant:normal;font-weight:500;font-stretch:normal;text-align:start;line-height:125%;writing-mode:lr-tb;text-anchor:start;font-family:Century Schoolbook L;-inkscape-font-specification:Century Schoolbook L Medium">Başlangıçta Tanrı göğü ve yeri yarattı.</tspan><tspan
         sodipodi:role="line"
         x="150.00766"
         y="141.14873"
         style="font-size:12px;font-style:normal;font-variant:normal;font-weight:500;font-stretch:normal;text-align:start;line-height:125%;writing-mode:lr-tb;text-anchor:start;font-family:Century Schoolbook L;-inkscape-font-specification:Century Schoolbook L Medium"
         id="tspan4172" /><tspan
         sodipodi:role="line"
         x="150.00766"
         y="156.14873"
         style="font-size:12px;font-style:normal;font-variant:normal;font-weight:500;font-stretch:normal;text-align:start;line-height:125%;writing-mode:lr-tb;text-anchor:start;font-family:Century Schoolbook L;-inkscape-font-specification:Century Schoolbook L Medium"
         id="tspan4174">In die begin het God die hemel en die aarde geskape.</tspan></text>
    <text
       xml:space="preserve"
       style="font-size:40px;font-style:normal;font-weight:normal;line-height:125%;letter-spacing:0px;word-spacing:0px;fill:#000000;fill-opacity:1;stroke:none;font-family:Bitstream Vera Sans"
       x="144.82271"
       y="36.138783"
       id="text2985-6"
       sodipodi:linespacing="125%"><tspan
         sodipodi:role="line"
         id="tspan2987-4"
         x="144.82271"
         y="36.138783"
         style="font-size:12px;font-style:normal;font-variant:normal;font-weight:500;font-stretch:normal;text-align:end;line-height:125%;writing-mode:lr-tb;text-anchor:end;fill:#666666;font-family:Century Schoolbook L;-inkscape-font-specification:Century Schoolbook L Medium">King James Version.</tspan><tspan
         sodipodi:role="line"
         x="144.82271"
         y="51.138783"
         id="tspan2989-1"
         style="font-size:12px;font-style:normal;font-variant:normal;font-weight:500;font-stretch:normal;text-align:end;line-height:125%;writing-mode:lr-tb;text-anchor:end;fill:#666666;font-family:Century Schoolbook L;-inkscape-font-specification:Century Schoolbook L Medium" /><tspan
         sodipodi:role="line"
         x="144.82271"
         y="66.138779"
         id="tspan2995-6"
         style="font-size:12px;font-style:normal;font-variant:normal;font-weight:500;font-stretch:normal;text-align:end;line-height:125%;writing-mode:lr-tb;text-anchor:end;fill:#666666;font-family:Century Schoolbook L;-inkscape-font-specification:Century Schoolbook L Medium">Spanish.</tspan><tspan
         sodipodi:role="line"
         x="144.82271"
         y="81.138779"
         id="tspan2997-3"
         style="font-size:12px;font-style:normal;font-variant:normal;font-weight:500;font-stretch:normal;text-align:end;line-height:125%;writing-mode:lr-tb;text-anchor:end;fill:#666666;font-family:Century Schoolbook L;-inkscape-font-specification:Century Schoolbook L Medium" /><tspan
         sodipodi:role="line"
         x="144.82271"
         y="96.138779"
         id="tspan2999-0"
         style="font-size:12px;font-style:normal;font-variant:normal;font-weight:500;font-stretch:normal;text-align:end;line-height:125%;writing-mode:lr-tb;text-anchor:end;fill:#666666;font-family:Century Schoolbook L;-inkscape-font-specification:Century Schoolbook L Medium">Polish.</tspan><tspan
         sodipodi:role="line"
         x="144.82271"
         y="111.13878"
         id="tspan3001-1"
         style="font-size:12px;font-style:normal;font-variant:normal;font-weight:500;font-stretch:normal;text-align:end;line-height:125%;writing-mode:lr-tb;text-anchor:end;fill:#666666;font-family:Century Schoolbook L;-inkscape-font-specification:Century Schoolbook L Medium" /><tspan
         sodipodi:role="line"
         x="144.82271"
         y="126.13878"
         id="tspan3003-5"
         style="font-size:12px;font-style:normal;font-variant:normal;font-weight:500;font-stretch:normal;text-align:end;line-height:125%;writing-mode:lr-tb;text-anchor:end;fill:#666666;font-family:Century Schoolbook L;-inkscape-font-specification:Century Schoolbook L Medium">Turkish.</tspan><tspan
         sodipodi:role="line"
         x="144.82271"
         y="141.13878"
         style="font-size:12px;font-style:normal;font-variant:normal;font-weight:500;font-stretch:normal;text-align:end;line-height:125%;writing-mode:lr-tb;text-anchor:end;fill:#666666;font-family:Century Schoolbook L;-inkscape-font-specification:Century Schoolbook L Medium"
         id="tspan4225" /><tspan
         sodipodi:role="line"
         x="144.82271"
         y="156.13878"
         style="font-size:12px;font-style:normal;font-variant:normal;font-weight:500;font-stretch:normal;text-align:end;line-height:125%;writing-mode:lr-tb;text-anchor:end;fill:#666666;font-family:Century Schoolbook L;-inkscape-font-specification:Century Schoolbook L Medium"
         id="tspan4229">Afrikaans.</tspan></text>
  </g>
</svg>
